<?xml version="1.0" encoding="UTF-8" standalone="no"?>
<!DOCTYPE svg PUBLIC "-//W3C//DTD SVG 1.1//EN"
 "http://www.w3.org/Graphics/SVG/1.1/DTD/svg11.dtd">
<!-- Generated by graphviz version 8.0.5 (0)
 -->
<!-- Title: snakemake_dag Pages: 1 -->
<svg width="560pt" height="404pt"
 viewBox="0.00 0.00 559.50 404.00" xmlns="http://www.w3.org/2000/svg" xmlns:xlink="http://www.w3.org/1999/xlink">
<g id="graph0" class="graph" transform="scale(1 1) rotate(0) translate(4 400)">
<title>snakemake_dag</title>
<polygon fill="white" stroke="none" points="-4,4 -4,-400 555.5,-400 555.5,4 -4,4"/>
<!-- 0 -->
<g id="node1" class="node">
<title>0</title>
<path fill="none" stroke="#56a9d8" stroke-width="2" d="M290.75,-36C290.75,-36 260.75,-36 260.75,-36 254.75,-36 248.75,-30 248.75,-24 248.75,-24 248.75,-12 248.75,-12 248.75,-6 254.75,0 260.75,0 260.75,0 290.75,0 290.75,0 296.75,0 302.75,-6 302.75,-12 302.75,-12 302.75,-24 302.75,-24 302.75,-30 296.75,-36 290.75,-36"/>
<text text-anchor="middle" x="275.75" y="-14.12" font-family="sans" font-size="10.00">all</text>
</g>
<!-- 1 -->
<g id="node2" class="node">
<title>1</title>
<path fill="none" stroke="#56d8a9" stroke-width="2" d="M291.25,-108C291.25,-108 260.25,-108 260.25,-108 254.25,-108 248.25,-102 248.25,-96 248.25,-96 248.25,-84 248.25,-84 248.25,-78 254.25,-72 260.25,-72 260.25,-72 291.25,-72 291.25,-72 297.25,-72 303.25,-78 303.25,-84 303.25,-84 303.25,-96 303.25,-96 303.25,-102 297.25,-108 291.25,-108"/>
<text text-anchor="middle" x="275.75" y="-86.12" font-family="sans" font-size="10.00">final_rule</text>
</g>
<!-- 1&#45;&gt;0 -->
<g id="edge1" class="edge">
<title>1&#45;&gt;0</title>
<path fill="none" stroke="grey" stroke-width="2" d="M275.75,-71.34C275.75,-64.75 275.75,-57.08 275.75,-49.67"/>
<polygon fill="grey" stroke="grey" stroke-width="2" points="279.25,-49.9 275.75,-39.9 272.25,-49.9 279.25,-49.9"/>
</g>
<!-- 2 -->
<g id="node3" class="node">
<title>2</title>
<path fill="none" stroke="#d8ac56" stroke-width="2" d="M100.62,-180C100.62,-180 62.88,-180 62.88,-180 56.88,-180 50.88,-174 50.88,-168 50.88,-168 50.88,-156 50.88,-156 50.88,-150 56.88,-144 62.88,-144 62.88,-144 100.62,-144 100.62,-144 106.62,-144 112.62,-150 112.62,-156 112.62,-156 112.62,-168 112.62,-168 112.62,-174 106.62,-180 100.62,-180"/>
<text text-anchor="middle" x="81.75" y="-158.12" font-family="sans" font-size="10.00">fourth_rule</text>
</g>
<!-- 2&#45;&gt;1 -->
<g id="edge2" class="edge">
<title>2&#45;&gt;1</title>
<path fill="none" stroke="grey" stroke-width="2" d="M113.35,-149.6C146.58,-137.61 198.98,-118.7 235.23,-105.62"/>
<polygon fill="grey" stroke="grey" stroke-width="2" points="237.1,-108.94 245.32,-102.26 234.73,-102.36 237.1,-108.94"/>
</g>
<!-- 3 -->
<g id="node4" class="node">
<title>3</title>
<path fill="none" stroke="#d85656" stroke-width="2" d="M83.5,-252C83.5,-252 12,-252 12,-252 6,-252 0,-246 0,-240 0,-240 0,-228 0,-228 0,-222 6,-216 12,-216 12,-216 83.5,-216 83.5,-216 89.5,-216 95.5,-222 95.5,-228 95.5,-228 95.5,-240 95.5,-240 95.5,-246 89.5,-252 83.5,-252"/>
<text text-anchor="middle" x="47.75" y="-235.75" font-family="sans" font-size="10.00">third_rule</text>
<text text-anchor="middle" x="47.75" y="-224.5" font-family="sans" font-size="10.00">scatteritem: 1&#45;of&#45;5</text>
</g>
<!-- 3&#45;&gt;2 -->
<g id="edge7" class="edge">
<title>3&#45;&gt;2</title>
<path fill="none" stroke="grey" stroke-width="2" d="M56.33,-215.34C59.69,-208.43 63.63,-200.31 67.39,-192.56"/>
<polygon fill="grey" stroke="grey" stroke-width="2" points="70.83,-193.43 72.05,-182.9 64.54,-190.37 70.83,-193.43"/>
</g>
<!-- 4 -->
<g id="node5" class="node">
<title>4</title>
<path fill="none" stroke="#59d856" stroke-width="2" d="M298,-324C298,-324 253.5,-324 253.5,-324 247.5,-324 241.5,-318 241.5,-312 241.5,-312 241.5,-300 241.5,-300 241.5,-294 247.5,-288 253.5,-288 253.5,-288 298,-288 298,-288 304,-288 310,-294 310,-300 310,-300 310,-312 310,-312 310,-318 304,-324 298,-324"/>
<text text-anchor="middle" x="275.75" y="-302.12" font-family="sans" font-size="10.00">second_rule</text>
</g>
<!-- 4&#45;&gt;3 -->
<g id="edge8" class="edge">
<title>4&#45;&gt;3</title>
<path fill="none" stroke="grey" stroke-width="2" d="M240.62,-294.22C205.57,-283.45 151,-266.7 108.84,-253.75"/>
<polygon fill="grey" stroke="grey" stroke-width="2" points="109.05,-249.55 98.46,-249.96 107,-256.24 109.05,-249.55"/>
</g>
<!-- 7 -->
<g id="node8" class="node">
<title>7</title>
<path fill="none" stroke="#d85656" stroke-width="2" d="M197.5,-252C197.5,-252 126,-252 126,-252 120,-252 114,-246 114,-240 114,-240 114,-228 114,-228 114,-222 120,-216 126,-216 126,-216 197.5,-216 197.5,-216 203.5,-216 209.5,-222 209.5,-228 209.5,-228 209.5,-240 209.5,-240 209.5,-246 203.5,-252 197.5,-252"/>
<text text-anchor="middle" x="161.75" y="-235.75" font-family="sans" font-size="10.00">third_rule</text>
<text text-anchor="middle" x="161.75" y="-224.5" font-family="sans" font-size="10.00">scatteritem: 2&#45;of&#45;5</text>
</g>
<!-- 4&#45;&gt;7 -->
<g id="edge11" class="edge">
<title>4&#45;&gt;7</title>
<path fill="none" stroke="grey" stroke-width="2" d="M246.69,-287.15C233.02,-278.76 216.51,-268.62 201.69,-259.52"/>
<polygon fill="grey" stroke="grey" stroke-width="2" points="203.11,-256.06 192.76,-253.81 199.45,-262.03 203.11,-256.06"/>
</g>
<!-- 9 -->
<g id="node10" class="node">
<title>9</title>
<path fill="none" stroke="#d85656" stroke-width="2" d="M311.5,-252C311.5,-252 240,-252 240,-252 234,-252 228,-246 228,-240 228,-240 228,-228 228,-228 228,-222 234,-216 240,-216 240,-216 311.5,-216 311.5,-216 317.5,-216 323.5,-222 323.5,-228 323.5,-228 323.5,-240 323.5,-240 323.5,-246 317.5,-252 311.5,-252"/>
<text text-anchor="middle" x="275.75" y="-235.75" font-family="sans" font-size="10.00">third_rule</text>
<text text-anchor="middle" x="275.75" y="-224.5" font-family="sans" font-size="10.00">scatteritem: 3&#45;of&#45;5</text>
</g>
<!-- 4&#45;&gt;9 -->
<g id="edge13" class="edge">
<title>4&#45;&gt;9</title>
<path fill="none" stroke="grey" stroke-width="2" d="M275.75,-287.34C275.75,-280.75 275.75,-273.08 275.75,-265.67"/>
<polygon fill="grey" stroke="grey" stroke-width="2" points="279.25,-265.9 275.75,-255.9 272.25,-265.9 279.25,-265.9"/>
</g>
<!-- 11 -->
<g id="node12" class="node">
<title>11</title>
<path fill="none" stroke="#d85656" stroke-width="2" d="M425.5,-252C425.5,-252 354,-252 354,-252 348,-252 342,-246 342,-240 342,-240 342,-228 342,-228 342,-222 348,-216 354,-216 354,-216 425.5,-216 425.5,-216 431.5,-216 437.5,-222 437.5,-228 437.5,-228 437.5,-240 437.5,-240 437.5,-246 431.5,-252 425.5,-252"/>
<text text-anchor="middle" x="389.75" y="-235.75" font-family="sans" font-size="10.00">third_rule</text>
<text text-anchor="middle" x="389.75" y="-224.5" font-family="sans" font-size="10.00">scatteritem: 4&#45;of&#45;5</text>
</g>
<!-- 4&#45;&gt;11 -->
<g id="edge15" class="edge">
<title>4&#45;&gt;11</title>
<path fill="none" stroke="grey" stroke-width="2" d="M304.81,-287.15C318.48,-278.76 334.99,-268.62 349.81,-259.52"/>
<polygon fill="grey" stroke="grey" stroke-width="2" points="352.05,-262.03 358.74,-253.81 348.39,-256.06 352.05,-262.03"/>
</g>
<!-- 13 -->
<g id="node14" class="node">
<title>13</title>
<path fill="none" stroke="#d85656" stroke-width="2" d="M539.5,-252C539.5,-252 468,-252 468,-252 462,-252 456,-246 456,-240 456,-240 456,-228 456,-228 456,-222 462,-216 468,-216 468,-216 539.5,-216 539.5,-216 545.5,-216 551.5,-222 551.5,-228 551.5,-228 551.5,-240 551.5,-240 551.5,-246 545.5,-252 539.5,-252"/>
<text text-anchor="middle" x="503.75" y="-235.75" font-family="sans" font-size="10.00">third_rule</text>
<text text-anchor="middle" x="503.75" y="-224.5" font-family="sans" font-size="10.00">scatteritem: 5&#45;of&#45;5</text>
</g>
<!-- 4&#45;&gt;13 -->
<g id="edge17" class="edge">
<title>4&#45;&gt;13</title>
<path fill="none" stroke="grey" stroke-width="2" d="M310.88,-294.22C345.93,-283.45 400.5,-266.7 442.66,-253.75"/>
<polygon fill="grey" stroke="grey" stroke-width="2" points="444.5,-256.24 453.04,-249.96 442.45,-249.55 444.5,-256.24"/>
</g>
<!-- 5 -->
<g id="node6" class="node">
<title>5</title>
<path fill="none" stroke="#afd856" stroke-width="2" stroke-dasharray="5,2" d="M290.75,-396C290.75,-396 260.75,-396 260.75,-396 254.75,-396 248.75,-390 248.75,-384 248.75,-384 248.75,-372 248.75,-372 248.75,-366 254.75,-360 260.75,-360 260.75,-360 290.75,-360 290.75,-360 296.75,-360 302.75,-366 302.75,-372 302.75,-372 302.75,-384 302.75,-384 302.75,-390 296.75,-396 290.75,-396"/>
<text text-anchor="middle" x="275.75" y="-374.12" font-family="sans" font-size="10.00">first_rule</text>
</g>
<!-- 5&#45;&gt;4 -->
<g id="edge9" class="edge">
<title>5&#45;&gt;4</title>
<path fill="none" stroke="grey" stroke-width="2" d="M275.75,-359.34C275.75,-352.75 275.75,-345.08 275.75,-337.67"/>
<polygon fill="grey" stroke="grey" stroke-width="2" points="279.25,-337.9 275.75,-327.9 272.25,-337.9 279.25,-337.9"/>
</g>
<!-- 6 -->
<g id="node7" class="node">
<title>6</title>
<path fill="none" stroke="#d8ac56" stroke-width="2" d="M197.62,-180C197.62,-180 159.88,-180 159.88,-180 153.88,-180 147.88,-174 147.88,-168 147.88,-168 147.88,-156 147.88,-156 147.88,-150 153.88,-144 159.88,-144 159.88,-144 197.62,-144 197.62,-144 203.62,-144 209.62,-150 209.62,-156 209.62,-156 209.62,-168 209.62,-168 209.62,-174 203.62,-180 197.62,-180"/>
<text text-anchor="middle" x="178.75" y="-158.12" font-family="sans" font-size="10.00">fourth_rule</text>
</g>
<!-- 6&#45;&gt;1 -->
<g id="edge3" class="edge">
<title>6&#45;&gt;1</title>
<path fill="none" stroke="grey" stroke-width="2" d="M203.48,-143.15C214.77,-135.01 228.34,-125.22 240.65,-116.33"/>
<polygon fill="grey" stroke="grey" stroke-width="2" points="243.01,-118.5 249.07,-109.81 238.91,-112.83 243.01,-118.5"/>
</g>
<!-- 7&#45;&gt;6 -->
<g id="edge10" class="edge">
<title>7&#45;&gt;6</title>
<path fill="none" stroke="grey" stroke-width="2" d="M166.04,-215.34C167.66,-208.67 169.55,-200.89 171.37,-193.39"/>
<polygon fill="grey" stroke="grey" stroke-width="2" points="175.44,-193.45 174.4,-182.9 168.64,-191.79 175.44,-193.45"/>
</g>
<!-- 8 -->
<g id="node9" class="node">
<title>8</title>
<path fill="none" stroke="#d8ac56" stroke-width="2" d="M294.62,-180C294.62,-180 256.88,-180 256.88,-180 250.88,-180 244.88,-174 244.88,-168 244.88,-168 244.88,-156 244.88,-156 244.88,-150 250.88,-144 256.88,-144 256.88,-144 294.62,-144 294.62,-144 300.62,-144 306.62,-150 306.62,-156 306.62,-156 306.62,-168 306.62,-168 306.62,-174 300.62,-180 294.62,-180"/>
<text text-anchor="middle" x="275.75" y="-158.12" font-family="sans" font-size="10.00">fourth_rule</text>
</g>
<!-- 8&#45;&gt;1 -->
<g id="edge4" class="edge">
<title>8&#45;&gt;1</title>
<path fill="none" stroke="grey" stroke-width="2" d="M275.75,-143.34C275.75,-136.75 275.75,-129.08 275.75,-121.67"/>
<polygon fill="grey" stroke="grey" stroke-width="2" points="279.25,-121.9 275.75,-111.9 272.25,-121.9 279.25,-121.9"/>
</g>
<!-- 9&#45;&gt;8 -->
<g id="edge12" class="edge">
<title>9&#45;&gt;8</title>
<path fill="none" stroke="grey" stroke-width="2" d="M275.75,-215.34C275.75,-208.75 275.75,-201.08 275.75,-193.67"/>
<polygon fill="grey" stroke="grey" stroke-width="2" points="279.25,-193.9 275.75,-183.9 272.25,-193.9 279.25,-193.9"/>
</g>
<!-- 10 -->
<g id="node11" class="node">
<title>10</title>
<path fill="none" stroke="#d8ac56" stroke-width="2" d="M391.62,-180C391.62,-180 353.88,-180 353.88,-180 347.88,-180 341.88,-174 341.88,-168 341.88,-168 341.88,-156 341.88,-156 341.88,-150 347.88,-144 353.88,-144 353.88,-144 391.62,-144 391.62,-144 397.62,-144 403.62,-150 403.62,-156 403.62,-156 403.62,-168 403.62,-168 403.62,-174 397.62,-180 391.62,-180"/>
<text text-anchor="middle" x="372.75" y="-158.12" font-family="sans" font-size="10.00">fourth_rule</text>
</g>
<!-- 10&#45;&gt;1 -->
<g id="edge5" class="edge">
<title>10&#45;&gt;1</title>
<path fill="none" stroke="grey" stroke-width="2" d="M348.02,-143.15C336.73,-135.01 323.16,-125.22 310.85,-116.33"/>
<polygon fill="grey" stroke="grey" stroke-width="2" points="312.59,-112.83 302.43,-109.81 308.49,-118.5 312.59,-112.83"/>
</g>
<!-- 11&#45;&gt;10 -->
<g id="edge14" class="edge">
<title>11&#45;&gt;10</title>
<path fill="none" stroke="grey" stroke-width="2" d="M385.46,-215.34C383.84,-208.67 381.95,-200.89 380.13,-193.39"/>
<polygon fill="grey" stroke="grey" stroke-width="2" points="382.86,-191.79 377.1,-182.9 376.06,-193.45 382.86,-191.79"/>
</g>
<!-- 12 -->
<g id="node13" class="node">
<title>12</title>
<path fill="none" stroke="#d8ac56" stroke-width="2" d="M496.62,-180C496.62,-180 458.88,-180 458.88,-180 452.88,-180 446.88,-174 446.88,-168 446.88,-168 446.88,-156 446.88,-156 446.88,-150 452.88,-144 458.88,-144 458.88,-144 496.62,-144 496.62,-144 502.62,-144 508.62,-150 508.62,-156 508.62,-156 508.62,-168 508.62,-168 508.62,-174 502.62,-180 496.62,-180"/>
<text text-anchor="middle" x="477.75" y="-158.12" font-family="sans" font-size="10.00">fourth_rule</text>
</g>
<!-- 12&#45;&gt;1 -->
<g id="edge6" class="edge">
<title>12&#45;&gt;1</title>
<path fill="none" stroke="grey" stroke-width="2" d="M446.19,-150.06C411.2,-137.94 354.65,-118.34 316.38,-105.08"/>
<polygon fill="grey" stroke="grey" stroke-width="2" points="316.75,-100.81 306.16,-100.84 314.46,-107.43 316.75,-100.81"/>
</g>
<!-- 13&#45;&gt;12 -->
<g id="edge16" class="edge">
<title>13&#45;&gt;12</title>
<path fill="none" stroke="grey" stroke-width="2" d="M497.19,-215.34C494.65,-208.51 491.68,-200.5 488.83,-192.83"/>
<polygon fill="grey" stroke="grey" stroke-width="2" points="492.16,-191.06 485.4,-182.9 485.6,-193.49 492.16,-191.06"/>
</g>
</g>
</svg>
